Coordinates
version=1
nRows=11
nColumns=63
inDegrees=yes

Units are S.I. units (second, meters, Newtons, ...)
If the header above contains a line with 'inDegrees', this indicates whether rotational values are in degrees (yes) or radians (no).

endheader
time	pelvis_tilt	pelvis_list	pelvis_rotation	pelvis_tx	pelvis_ty	pelvis_tz	hip_flexion_r	hip_adduction_r	hip_rotation_r	knee_angle_r	knee_angle_r_beta	ankle_angle_r	subtalar_angle_r	mtp_angle_r	hip_flexion_l	hip_adduction_l	hip_rotation_l	knee_angle_l	knee_angle_l_beta	ankle_angle_l	subtalar_angle_l	mtp_angle_l	L5_S1_Flex_Ext	L5_S1_Lat_Bending	L5_S1_axial_rotation	L4_L5_Flex_Ext	L4_L5_Lat_Bending	L4_L5_axial_rotation	L3_L4_Flex_Ext	L3_L4_Lat_Bending	L3_L4_axial_rotation	L2_L3_Flex_Ext	L2_L3_Lat_Bending	L2_L3_axial_rotation	L1_L2_Flex_Ext	L1_L2_Lat_Bending	L1_L2_axial_rotation	L1_T12_Flex_Ext	L1_T12_Lat_Bending	L1_T12_axial_rotation	Abs_r3	Abs_r2	Abs_r1	Abs_t1	Abs_t2	neck_flexion	neck_bending	neck_rotation	arm_flex_r	arm_add_r	arm_rot_r	elbow_flex_r	pro_sup_r	wrist_flex_r	wrist_dev_r	arm_flex_l	arm_add_l	arm_rot_l	elbow_flex_l	pro_sup_l	wrist_flex_l	wrist_dev_l
2.232143	1.624822	-0.688523	77.850990	0.194168	0.944737	0.522694	9.915433	3.585067	-0.211499	11.424439	0.199394	23.515916	-4.131040	0.000000	4.295370	-3.044164	-0.589204	1.310577	0.022874	27.242978	0.623351	0.000000	-0.055670	0.250335	4.035782	-0.103386	0.332946	4.288019	-0.091461	0.608666	4.288019	-0.063626	0.608666	3.531309	-0.051696	0.510484	3.279073	-0.031810	0.387770	3.026837	-0.397648	2.831845	22.445810	0.000000	0.000000	11.434256	-1.025300	-7.944797	-9.514433	-14.035398	-9.031730	75.575692	81.715293	-13.274376	25.725214	26.686484	0.557505	130.877890	0.488051	0.242612	-3.242447	-23.430168
2.250000	1.509573	-0.625180	77.822231	0.193999	0.944587	0.524242	10.012592	3.426105	-0.350318	11.508315	0.200858	23.866994	-3.533747	0.000000	4.444646	-2.924885	-1.172714	1.413882	0.024677	27.547124	1.409648	0.000000	-0.074548	0.248388	4.232724	-0.138444	0.330357	4.497269	-0.122476	0.603932	4.497269	-0.085201	0.603932	3.703633	-0.069226	0.506514	3.439088	-0.042597	0.384754	3.174543	-0.532492	2.809820	23.541141	0.000000	0.000000	11.324969	-1.429510	-8.667472	-9.745671	-13.860215	-9.902019	75.689573	82.347500	-13.327102	24.856796	28.219907	0.978434	128.424873	0.497793	0.471044	7.936364	-23.736209
2.267857	1.639934	-0.288591	77.911297	0.192908	0.945196	0.526282	9.787086	3.391523	-0.878452	11.543340	0.201469	24.074551	-2.566464	0.000000	4.337861	-2.969910	-1.723128	1.539259	0.026865	27.861160	2.326840	0.000000	-0.120418	0.282755	4.614970	-0.223628	0.376064	4.903406	-0.197835	0.687491	4.903406	-0.137626	0.687491	4.038099	-0.111820	0.576594	3.749663	-0.068807	0.437988	3.461228	-0.860134	3.198581	25.667080	0.000000	0.000000	10.711257	-2.090148	-10.617355	-10.749240	-13.702525	-11.940777	76.261115	82.868068	-13.397572	23.379259	31.714333	3.300343	132.449934	-4.185671	-4.319275	24.008440	-25.991044
2.285714	1.714209	-0.019630	78.122878	0.192066	0.945648	0.527648	9.570852	3.329020	-1.320734	11.544307	0.201486	24.329836	-1.808250	0.000000	4.270672	-2.979913	-2.108950	1.640005	0.028623	28.195473	3.188633	0.000000	-0.155541	0.304387	4.880892	-0.288856	0.404835	5.185947	-0.255539	0.740088	5.185947	-0.177768	0.740088	4.270780	-0.144436	0.620707	3.965724	-0.088876	0.471496	3.660669	-1.111016	3.443291	27.146055	0.000000	0.000000	10.284475	-2.603831	-12.169427	-11.524423	-13.552276	-13.256288	76.907877	83.385827	-13.554462	21.328737	34.124009	4.863384	133.783836	-6.300238	-6.428538	36.656058	-26.972358
2.303571	1.727584	0.199567	78.419753	0.191498	0.945995	0.528311	9.342900	3.231282	-1.684728	11.513671	0.200951	24.628063	-1.232055	0.000000	4.206688	-2.945684	-2.377077	1.711916	0.029879	28.497238	3.974564	0.000000	-0.181170	0.312506	5.037122	-0.336450	0.415633	5.351943	-0.297644	0.759827	5.351943	-0.207059	0.759827	4.407482	-0.168234	0.637262	4.092662	-0.103520	0.484072	3.777842	-1.294077	3.535129	28.014964	0.000000	0.000000	10.039200	-2.940049	-13.338349	-12.086278	-13.432947	-13.821608	77.693847	83.975638	-13.838584	18.896716	35.507781	5.732306	132.664127	-6.070056	-6.112760	45.826610	-26.880231
2.321429	1.713938	0.375227	78.765233	0.191159	0.946272	0.528253	9.096689	3.128669	-1.981631	11.463084	0.200069	24.936096	-0.815734	0.000000	4.124114	-2.896521	-2.552986	1.758587	0.030693	28.745681	4.648634	0.000000	-0.197316	0.312744	5.094598	-0.366436	0.415949	5.413011	-0.324171	0.760405	5.413011	-0.225513	0.760405	4.457774	-0.183228	0.637747	4.139361	-0.112746	0.484440	3.820949	-1.409409	3.537817	28.334628	0.000000	0.000000	9.975849	-3.102312	-14.105113	-12.482719	-13.367759	-13.720150	78.711754	84.669752	-14.118449	16.408750	35.931028	6.003227	129.509353	-3.763194	-3.725764	51.424695	-25.928948
2.339286	1.663181	0.513984	79.138116	0.191095	0.946488	0.527461	8.819244	3.015310	-2.179088	11.376057	0.198550	25.261342	-0.573140	0.000000	4.005415	-2.822076	-2.622400	1.772850	0.030942	28.920876	5.162239	0.000000	-0.203783	0.303248	5.057371	-0.378446	0.403320	5.373457	-0.334795	0.737317	5.373457	-0.232904	0.737317	4.425200	-0.189233	0.618383	4.109114	-0.116442	0.469731	3.793028	-1.455603	3.430400	28.127582	0.000000	0.000000	10.086633	-3.067348	-14.469173	-12.710758	-13.348677	-12.951877	79.943561	85.449907	-14.394633	13.956160	35.449388	5.696677	124.696706	0.411479	0.513299	53.375739	-24.209690
2.357143	1.586224	0.622752	79.490035	0.191299	0.946660	0.525996	8.520335	2.897412	-2.307609	11.275968	0.196803	25.596012	-0.431100	0.000000	3.840948	-2.730984	-2.642692	1.757907	0.030681	29.014634	5.532150	0.000000	-0.201962	0.286176	4.948410	-0.375063	0.380613	5.257686	-0.331803	0.695807	5.257686	-0.230822	0.695807	4.329859	-0.187542	0.583569	4.020583	-0.115401	0.443286	3.711308	-1.442593	3.237275	27.521574	0.000000	0.000000	10.365052	-2.865248	-14.503796	-12.821468	-13.366366	-11.656182	81.404424	86.223583	-14.593377	11.774499	34.206662	4.896582	118.720785	6.108280	6.264939	51.558686	-22.015851
2.375000	1.491475	0.705411	79.833646	0.191675	0.946820	0.523942	8.198651	2.775046	-2.430282	11.159622	0.194772	25.922398	-0.351456	0.000000	3.636471	-2.629196	-2.764906	1.717012	0.029968	29.093009	5.995067	0.000000	-0.192429	0.264277	4.767597	-0.357360	0.351489	5.065571	-0.316142	0.642563	5.065571	-0.219927	0.642563	4.171647	-0.178690	0.538914	3.873672	-0.109954	0.409365	3.575697	-1.374501	2.989555	26.515942	0.000000	0.000000	10.768920	-2.545116	-14.178968	-12.798892	-13.435218	-9.888014	83.018444	86.970817	-14.654674	10.028316	32.250296	3.679559	111.487151	13.084496	13.229321	46.411086	-19.881292
2.392857	1.381838	0.770955	80.114023	0.192251	0.946975	0.521429	7.860618	2.656692	-2.472292	11.030821	0.192524	26.213871	-0.364649	0.000000	3.388559	-2.519084	-2.902158	1.647944	0.028762	29.140748	6.382889	0.000000	-0.177420	0.238499	4.545808	-0.329486	0.317204	4.829920	-0.291483	0.579887	4.829920	-0.202773	0.579887	3.977582	-0.164752	0.486347	3.693469	-0.101378	0.369435	3.409356	-1.267292	2.697950	25.282418	0.000000	0.000000	11.261322	-2.148083	-13.595805	-12.706802	-13.534940	-7.796512	84.706887	87.547162	-14.679466	8.622467	29.753803	2.133676	103.481289	21.015218	21.170990	38.197208	-17.743528
2.410714	1.227663	0.835027	80.331655	0.193105	0.947097	0.518624	7.516612	2.516286	-2.417138	10.906390	0.190352	26.488109	-0.490592	0.000000	3.104293	-2.373661	-3.021319	1.553143	0.027107	29.156645	6.659184	0.000000	-0.159275	0.205962	4.312141	-0.295790	0.273930	4.581650	-0.261673	0.500776	4.581650	-0.182035	0.500776	3.773124	-0.147903	0.419998	3.503615	-0.091010	0.319035	3.234106	-1.137685	2.329886	23.982836	0.000000	0.000000	11.791210	-1.732361	-12.826169	-12.615398	-13.591006	-5.612160	86.390447	87.926003	-14.700740	7.541718	27.041814	0.154089	93.550301	29.636773	29.806278	32.405524	-15.634871
